<svg xmlns="http://www.w3.org/2000/svg" viewBox="0 0 512 512">
  <rect x="0" y="0" width="512" height="512" rx="112" fill="#1e40af"/>
  <ellipse cx="256" cy="196" rx="148" ry="118" fill="#3b82f6"/>
  <polygon points="222,298 256,355 290,298" fill="#3b82f6"/>
  <rect x="172" y="118" width="168" height="110" rx="22" fill="#ffffff"/>
  <rect x="190" y="138" width="58" height="38" rx="8" fill="#93c5fd"/>
  <rect x="264" y="138" width="58" height="38" rx="8" fill="#93c5fd"/>
  <rect x="238" y="148" width="36" height="36" rx="5" fill="#bfdbfe"/>
  <circle cx="204" cy="228" r="22" fill="#1d4ed8"/>
  <circle cx="204" cy="228" r="9" fill="#ffffff"/>
  <circle cx="308" cy="228" r="22" fill="#1d4ed8"/>
  <circle cx="308" cy="228" r="9" fill="#ffffff"/>
  <rect x="148" y="368" width="216" height="52" rx="14" fill="#ffffff" opacity="0.18"/>
  <text x="256" y="403" font-family="Arial, sans-serif" font-size="34" font-weight="800" fill="#ffffff" text-anchor="middle" letter-spacing="2">BUS STOP</text>
  <rect x="244" y="420" width="24" height="56" rx="10" fill="#ffffff" opacity="0.75"/>
  <rect x="192" y="470" width="128" height="22" rx="10" fill="#ffffff" opacity="0.75"/>
</svg>
